<svg xmlns="http://www.w3.org/2000/svg" version="1.1" xmlns:xlink="http://www.w3.org/1999/xlink" xmlns:svgjs="http://svgjs.dev/svgjs" width="1000" height="623" viewBox="0 0 1000 623"><g transform="matrix(1,0,0,1,-0.6060606060606233,0.2522267206477409)"><svg viewBox="0 0 396 247" data-background-color="#ffffff" preserveAspectRatio="xMidYMid meet" height="623" width="1000" xmlns="http://www.w3.org/2000/svg" xmlns:xlink="http://www.w3.org/1999/xlink"><g id="tight-bounds" transform="matrix(1,0,0,1,0.2400000000000091,-0.09999999999999432)"><svg viewBox="0 0 395.52 247.2" height="247.2" width="395.52"><g><svg></svg></g><g><svg viewBox="0 0 395.52 247.2" height="247.2" width="395.52"><mask id="2edb82a1-cf00-490f-a1ce-f04bbaa35667"><rect width="640" height="400" fill="white"></rect><g transform="matrix(1,0,0,1,39.55199999999999,78.96151126180672)"><svg viewBox="0 0 316.416 89.27697747638653" height="89.27697747638653" width="316.416"><g><svg viewBox="0 0 316.416 89.27697747638653" height="89.27697747638653" width="316.416"><g><svg viewBox="0 0 316.416 89.27697747638653" height="89.27697747638653" width="316.416"><g><svg viewBox="0 0 316.416 89.27697747638653" height="89.27697747638653" width="316.416"><g id="SvgjsG1254"><svg viewBox="0 0 316.416 89.27697747638653" height="89.27697747638653" width="316.416" id="SvgjsSvg1253"><g><svg viewBox="0 0 316.416 89.27697747638653" height="89.27697747638653" width="316.416"><g transform="matrix(1,0,0,1,0,0)"><svg width="316.416" viewBox="-2.450000047683716 -49.150001525878906 207.42999267578125 59.25" height="89.27697747638653" data-palette-color="#093d65"><path d="M11.9 0.4Q7.2 0.4 4.38-2.55 1.55-5.5 1.55-10.65L1.55-10.65 1.55-30.45Q1.55-36.85 4.1-40.1 6.65-43.35 12.1-43.35L12.1-43.35Q16.85-43.35 19.75-40.75 22.65-38.15 22.65-33.25L22.65-33.25 22.65-25.85 14.1-25.85 14.1-32.2Q14.1-34.05 13.65-34.75 13.2-35.45 12.1-35.45L12.1-35.45Q10.95-35.45 10.53-34.65 10.1-33.85 10.1-32.3L10.1-32.3 10.1-10.75Q10.1-9.05 10.6-8.28 11.1-7.5 12.1-7.5L12.1-7.5Q14.1-7.5 14.1-10.75L14.1-10.75 14.1-18.5 22.75-18.5 22.75-10.4Q22.75 0.4 11.9 0.4L11.9 0.4ZM25.45 0L25.45-43.2 34.45-43.2 34.45-33Q35.85-37 39.8-37L39.8-37Q43.5-37 45.4-34.65 47.3-32.3 47.3-28.2L47.3-28.2 47.3 0 38.55 0 38.55-27.65Q38.55-28.85 38-29.6 37.45-30.35 36.4-30.35L36.4-30.35Q35.5-30.35 34.97-29.58 34.45-28.8 34.45-27.7L34.45-27.7 34.45 0 25.45 0ZM57.35 0.4Q53.1 0.4 51.52-2.43 49.95-5.25 49.95-10.5L49.95-10.5Q49.95-14.8 51.07-17.1 52.2-19.4 54.2-20.48 56.2-21.55 60.3-22.85L60.3-22.85 62.7-23.65 62.7-23.75 62.7-27.4Q62.7-28.85 62.12-29.63 61.55-30.4 60.75-30.4L60.75-30.4Q60.05-30.4 59.52-29.75 59-29.1 59-28L59-28 59-25.8 50.5-25.8 50.5-27Q50.5-32.4 53.02-34.7 55.55-37 61.25-37L61.25-37Q65.8-37 68.65-34.63 71.5-32.25 71.5-27.9L71.5-27.9 71.5 0 62.8 0 62.8-4.35Q62.15-2.1 60.72-0.85 59.3 0.4 57.35 0.4L57.35 0.4ZM60.8-6.4Q61.8-6.4 62.22-7.23 62.65-8.05 62.65-9.25L62.65-9.25 62.65-19.45Q60.7-18.7 59.77-17.55 58.85-16.4 58.85-14.35L58.85-14.35 58.85-9.65Q58.85-6.4 60.8-6.4L60.8-6.4ZM74.84 0L74.84-36.6 83.59-36.6 83.59-32.55Q84.24-34.7 85.87-35.88 87.49-37.05 89.89-37.05L89.89-37.05 89.89-29.75Q88.04-29.75 85.82-29.23 83.59-28.7 83.59-28L83.59-28 83.59 0 74.84 0ZM100.74-39.05L91.99-39.05 91.99-45.15 100.74-45.15 100.74-39.05ZM100.74 0L91.99 0 91.99-36.6 100.74-36.6 100.74 0ZM114.29 0.4Q108.99 0.4 106.41-2.6 103.84-5.6 103.84-11.5L103.84-11.5 103.84-42.95 112.19-42.95 112.19-11.85Q112.19-9.8 112.59-8.65 112.99-7.5 114.29-7.5L114.29-7.5Q115.59-7.5 115.99-8.63 116.39-9.75 116.39-11.85L116.39-11.85 116.39-42.95 124.74-42.95 124.74-11.5Q124.74-5.6 122.16-2.6 119.59 0.4 114.29 0.4L114.29 0.4ZM127.89 0L127.89-36.6 136.64-36.6 136.64-31.95Q137.19-34.2 138.54-35.6 139.89-37 142.14-37L142.14-37Q145.84-37 147.61-34.73 149.39-32.45 149.39-28.25L149.39-28.25 149.39 0 140.79 0 140.79-27.35Q140.79-28.55 140.31-29.4 139.84-30.25 138.84-30.25L138.84-30.25Q137.49-30.25 137.06-29.03 136.64-27.8 136.64-25.75L136.64-25.75 136.64 0 127.89 0ZM161.53-39.05L152.78-39.05 152.78-45.15 161.53-45.15 161.53-39.05ZM161.53 0L152.78 0 152.78-36.6 161.53-36.6 161.53 0ZM172.53 0.4Q169.08 0.4 167.78-1.05 166.48-2.5 166.48-5.7L166.48-5.7 166.48-28.55 164.03-28.55 164.03-35.2 166.48-35.2 166.48-42.95 174.98-42.95 174.98-35.2 177.48-35.2 177.48-28.55 174.98-28.55 174.98-8Q174.98-7.05 175.13-6.6 175.28-6.15 175.93-6.15L175.93-6.15Q176.43-6.15 176.88-6.2 177.33-6.25 177.48-6.25L177.48-6.25 177.48-0.25Q176.73-0.05 175.31 0.18 173.88 0.4 172.53 0.4L172.53 0.4ZM179.53 6.1L179.53 0.55 183.73 0.55Q184.63 0.55 184.63-0.2L184.63-0.2Q184.63-0.55 184.58-0.75L184.58-0.75 178.88-36.6 187.23-36.6 188.88-18.75 189.68-9.65 190.63-18.75 192.58-36.6 200.98-36.6 194.18 1.9Q193.83 4.05 192.75 5.08 191.68 6.1 189.38 6.1L189.38 6.1 179.53 6.1Z" opacity="1" transform="matrix(1,0,0,1,0,0)" fill="black" class="wordmark-text-0" id="SvgjsPath1252" stroke-width="7" stroke="black" stroke-linejoin="round"></path></svg></g></svg></g></svg></g></svg></g></svg></g></svg></g></svg></g></mask><g transform="matrix(1,0,0,1,39.55199999999999,78.96151126180672)"><svg viewBox="0 0 316.416 89.27697747638653" height="89.27697747638653" width="316.416"><g><svg viewBox="0 0 316.416 89.27697747638653" height="89.27697747638653" width="316.416"><g><svg viewBox="0 0 316.416 89.27697747638653" height="89.27697747638653" width="316.416"><g><svg viewBox="0 0 316.416 89.27697747638653" height="89.27697747638653" width="316.416"><g id="textblocktransform"><svg viewBox="0 0 316.416 89.27697747638653" height="89.27697747638653" width="316.416" id="textblock"><g><svg viewBox="0 0 316.416 89.27697747638653" height="89.27697747638653" width="316.416"><g transform="matrix(1,0,0,1,0,0)"><svg width="316.416" viewBox="-2.450000047683716 -49.150001525878906 207.42999267578125 59.25" height="89.27697747638653" data-palette-color="#093d65"><path d="M11.9 0.4Q7.2 0.4 4.38-2.55 1.55-5.5 1.55-10.65L1.55-10.65 1.55-30.45Q1.55-36.85 4.1-40.1 6.65-43.35 12.1-43.35L12.1-43.35Q16.85-43.35 19.75-40.75 22.65-38.15 22.65-33.25L22.65-33.25 22.65-25.85 14.1-25.85 14.1-32.2Q14.1-34.05 13.65-34.75 13.2-35.45 12.1-35.45L12.1-35.45Q10.95-35.45 10.53-34.65 10.1-33.85 10.1-32.3L10.1-32.3 10.1-10.75Q10.1-9.05 10.6-8.28 11.1-7.5 12.1-7.5L12.1-7.5Q14.1-7.5 14.1-10.75L14.1-10.75 14.1-18.5 22.75-18.5 22.75-10.4Q22.75 0.4 11.9 0.4L11.9 0.4ZM25.45 0L25.45-43.2 34.45-43.2 34.45-33Q35.85-37 39.8-37L39.8-37Q43.5-37 45.4-34.65 47.3-32.3 47.3-28.2L47.3-28.2 47.3 0 38.55 0 38.55-27.65Q38.55-28.85 38-29.6 37.45-30.35 36.4-30.35L36.4-30.35Q35.5-30.35 34.97-29.58 34.45-28.8 34.45-27.7L34.45-27.7 34.45 0 25.45 0ZM57.35 0.4Q53.1 0.4 51.52-2.43 49.95-5.25 49.95-10.5L49.95-10.5Q49.95-14.8 51.07-17.1 52.2-19.4 54.2-20.48 56.2-21.55 60.3-22.85L60.3-22.85 62.7-23.65 62.7-23.75 62.7-27.4Q62.7-28.85 62.12-29.63 61.55-30.4 60.75-30.4L60.75-30.4Q60.05-30.4 59.52-29.75 59-29.1 59-28L59-28 59-25.8 50.5-25.8 50.5-27Q50.5-32.4 53.02-34.7 55.55-37 61.25-37L61.25-37Q65.8-37 68.65-34.63 71.5-32.25 71.5-27.9L71.5-27.9 71.5 0 62.8 0 62.8-4.35Q62.15-2.1 60.72-0.85 59.3 0.4 57.35 0.4L57.35 0.4ZM60.8-6.4Q61.8-6.4 62.22-7.23 62.65-8.05 62.65-9.25L62.65-9.25 62.65-19.45Q60.7-18.7 59.77-17.55 58.85-16.4 58.85-14.35L58.85-14.35 58.85-9.65Q58.85-6.4 60.8-6.4L60.8-6.4ZM74.84 0L74.84-36.6 83.59-36.6 83.59-32.55Q84.24-34.7 85.87-35.88 87.49-37.05 89.89-37.05L89.89-37.05 89.89-29.75Q88.04-29.75 85.82-29.23 83.59-28.7 83.59-28L83.59-28 83.59 0 74.84 0ZM100.74-39.05L91.99-39.05 91.99-45.15 100.74-45.15 100.74-39.05ZM100.74 0L91.99 0 91.99-36.6 100.74-36.6 100.74 0ZM114.29 0.4Q108.99 0.4 106.41-2.6 103.84-5.6 103.84-11.5L103.84-11.5 103.84-42.95 112.19-42.95 112.19-11.85Q112.19-9.8 112.59-8.65 112.99-7.5 114.29-7.5L114.29-7.5Q115.59-7.5 115.99-8.63 116.39-9.75 116.39-11.85L116.39-11.85 116.39-42.95 124.74-42.95 124.74-11.5Q124.74-5.6 122.16-2.6 119.59 0.4 114.29 0.4L114.29 0.4ZM127.89 0L127.89-36.6 136.64-36.6 136.64-31.95Q137.19-34.2 138.54-35.6 139.89-37 142.14-37L142.14-37Q145.84-37 147.61-34.73 149.39-32.45 149.39-28.25L149.39-28.25 149.39 0 140.79 0 140.79-27.35Q140.79-28.55 140.31-29.4 139.84-30.25 138.84-30.25L138.84-30.25Q137.49-30.25 137.06-29.03 136.64-27.8 136.64-25.75L136.64-25.75 136.64 0 127.89 0ZM161.53-39.05L152.78-39.05 152.78-45.15 161.53-45.15 161.53-39.05ZM161.53 0L152.78 0 152.78-36.6 161.53-36.6 161.53 0ZM172.53 0.4Q169.08 0.4 167.78-1.05 166.48-2.5 166.48-5.7L166.48-5.7 166.48-28.55 164.03-28.55 164.03-35.2 166.48-35.2 166.48-42.95 174.98-42.95 174.98-35.2 177.48-35.2 177.48-28.55 174.98-28.55 174.98-8Q174.98-7.05 175.13-6.6 175.28-6.15 175.93-6.15L175.93-6.15Q176.43-6.15 176.88-6.2 177.33-6.25 177.48-6.25L177.48-6.25 177.48-0.25Q176.73-0.05 175.31 0.18 173.88 0.4 172.53 0.4L172.53 0.4ZM179.53 6.1L179.53 0.55 183.73 0.55Q184.63 0.55 184.63-0.2L184.63-0.2Q184.63-0.55 184.58-0.75L184.58-0.75 178.88-36.6 187.23-36.6 188.88-18.75 189.68-9.65 190.63-18.75 192.58-36.6 200.98-36.6 194.18 1.9Q193.83 4.05 192.75 5.08 191.68 6.1 189.38 6.1L189.38 6.1 179.53 6.1Z" opacity="1" transform="matrix(1,0,0,1,0,0)" fill="#093d65" class="wordmark-text-0" data-fill-palette-color="primary" id="text-0"></path></svg></g></svg></g></svg></g></svg></g></svg></g></svg></g></svg></g><g mask="url(#2edb82a1-cf00-490f-a1ce-f04bbaa35667)"><g transform="matrix(1.9741962250229015, 0, 0, 1.9741962250229015, 96.15347993235403, 1)"><svg xmlns="http://www.w3.org/2000/svg" xmlns:xlink="http://www.w3.org/1999/xlink" version="1.1" x="0" y="0" viewBox="12.587194442749023 2 102.9345703125 124.20244598388672" style="enable-background:new 0 0 128 128;" xml:space="preserve" height="124.20244598388672" width="102.9345703125" class="icon-none" data-fill-palette-color="accent" id="none"><g fill="#d9733e" data-fill-palette-color="accent"><g fill="#d9733e" data-fill-palette-color="accent"><g fill="#d9733e" data-fill-palette-color="accent"><g fill="#d9733e" data-fill-palette-color="accent"><path d="M115.4 114.7c-2.3-8.8-4.1-15.6-4.1-15.6 0 0 0 0 0 0-0.1-0.8-0.2-1.6-0.3-2.3-1.6-13.1-2.6-26.4-2.7-39.6 0-1.1 0-2.3-0.3-3.4 0.2 0 0.5 0 0.7 0 1.7 0 3.1-0.7 4-1.8 1.3-1.7 1.4-4 0.1-7.1-1.9-4.6-4.4-8.8-6.9-12.9l-0.2-0.3c-1.1-1.8-2.2-3.6-3.2-5.5l-0.9-1.6c-1.1-2-2.3-4.1-3.6-6.1-0.6-0.8-1.2-1.6-1.8-2.3l-0.1-0.1c-0.1-0.1-0.1-0.2-0.2-0.2-0.1-0.1-0.2-0.3-0.3-0.4-1.1-1.2-1.9-2.2-2.4-3.3-0.1-0.2-0.2-0.4-0.2-0.5-0.5-1.8-0.8-3.3-1-4.7l0-0.1c-0.3-2.4-2.3-4.2-4.7-4.2L58.2 2c-1.3 0-2.5 0.4-3.4 1.3-0.9 0.9-1.5 2.1-1.5 3.4C53.2 14.2 53 20.2 53 22.1l0 0.6c-0.1 0.8-0.3 1.5-0.4 2.2-0.8 5.3-1.8 10.7-2.8 16-0.2-0.2-0.4-0.4-0.6-0.5-0.9-0.7-1.8-0.9-2.7-0.7-2 0.5-3.6 3.1-4.7 5.3-1.8 3.4-3 7.2-4.3 10.9-0.3 0.8-0.5 1.6-0.8 2.4-2.6 7.5-5.7 14.8-9.4 21.9-0.1 0.2-0.3 0.4-0.4 0.5-0.5 0.3-1 0-1.4-0.7-1.5-2.5-2-5.5-2.4-8.5-0.5-3.6-1.1-7.3-3.7-9.8-0.5-0.5-1.1-0.9-1.7-1.1-1.1-0.5-2.2-0.5-3 0-1.3 0.7-2 2.3-2.1 5-0.1 4.9 0.4 9.8 1 14.5 0.3 2.2 0.5 4.4 0.7 6.6l0.1 1.5c0.2 2.4 0.4 4.8 0.8 7.2 0.2 0.9 0.4 1.8 0.7 2.7l0 0.1c0.1 0.3 0.1 0.5 0.2 0.8 0.4 1.5 0.9 3 0.9 4.5 0 0.3 0 0.5-0.1 0.8-0.3 1.7-0.6 3.3-1.1 4.9v0c-0.5 1.6 0.2 3.2 1.7 3.9l26.4 12.6c1.6 0.8 3.5 0.1 4.3-1.5 3.9-8.2 6.9-14.5 6.9-14.5 0 0 0 0 0 0 0.5-0.7 0.9-1.3 1.3-1.9 0.5-0.8 1.1-1.6 1.6-2.5-3.4-3.3-7-6.6-10-10.5-2.4-3.1-3.1-5.9-2-8.5 0.7-1.8 2.3-3.1 4.3-3.7l0.1 0c1-0.3 2.1-0.4 3.1-0.3 1.6 0.1 3 0.5 4.4 1.1 0 0 0 0 0 0 0.5 0.4 1.1 0.7 1.6 0.9 0 0 0 0 0 0 1.9 1.1 3.5 2.6 5.1 4 0.8 0.7 1.6 1.4 2.3 2-0.6-2.5-1.3-5-2.1-7.5 0.9-1.2 1.3-2.7 1.6-4.2 0.1-0.3 0.1-0.5 0.1-0.8 1.9 5.5 3.4 11.1 4.7 16.8 0 0.2 0 0.5 0 0.7-0.2 0.5-0.7 0.7-1.5 0.4-2.8-0.9-5.1-3-7.3-4.9-2.7-2.4-5.6-4.9-9.2-5.1-0.7 0-1.4 0.1-2 0.2-1.1 0.3-2 1-2.3 1.9-0.6 1.4-0.1 3.1 1.6 5.2 3 3.8 6.6 7.2 10.1 10.5 1.6 1.5 3.2 3 4.7 4.6l1.1 1.1c1.7 1.7 3.4 3.4 5.2 5 0.7 0.6 1.5 1.1 2.2 1.6l0.1 0c0.2 0.2 0.5 0.3 0.7 0.5 1.3 0.8 2.6 1.7 3.6 2.9 0.2 0.2 0.3 0.4 0.5 0.6 0.9 1.5 1.7 2.9 2.3 4.4v0c0.7 1.5 2.2 2.3 3.8 1.9l28.4-7.3C114.8 118.2 115.9 116.4 115.4 114.7zM63.2 77.8c-0.3 1.5-0.7 2.8-1.5 3.3-0.4 0.2-0.9 0.1-1.2 0-0.7-0.2-1.4-0.9-1.7-1.6-0.6-1.4-0.5-2.9-0.2-5.5l0.7-5.3 1.1-8.3 1.2-9.1c0.1-1-0.2-1.9-0.9-2.4-0.4-0.3-1.2-0.7-2.3-0.1-1.5 0.8-2 2.5-2.3 3.6-0.1 0.3-0.1 0.5-0.2 0.7l-4.2 12.7c-0.4 1.2-0.8 2.3-1.4 3-0.4 0.4-1.2 1.1-1.9 0.8-0.1 0-0.4-0.2-0.5-0.3l0-0.1c-0.1-0.1-0.2-0.2-0.3-0.4-0.2-0.3-0.3-0.7-0.4-1.1 0-0.2 0-0.5 0-0.7 0-0.8 0.3-1.7 0.5-2.7l0-0.1c3.4-12.7 6.2-25.8 8.2-39 0.1-0.6 0.2-1.1 0.3-1.7l0.1-0.1v-0.7c0 0 0.1-7 0.3-16.1 0-0.4 0.2-0.8 0.5-1.1 0.3-0.3 0.7-0.4 1.1-0.4l29.3 0.7c0.8 0 1.4 0.6 1.6 1.5l0 0.1c0.2 1.5 0.6 3.2 1.1 5 0.1 0.3 0.2 0.7 0.4 1 0.8 1.7 2 3 2.9 4.1 0.1 0.1 0.2 0.2 0.3 0.3 0.1 0.1 0.2 0.2 0.3 0.3l0.1 0.1c0.6 0.7 1.1 1.3 1.5 2 1.2 1.9 2.4 3.9 3.4 5.8l0.9 1.6c1 1.9 2.2 3.8 3.2 5.6l0.2 0.3c2.4 4 4.9 8.2 6.7 12.5 0.8 1.9 0.9 3.2 0.3 3.8-0.4 0.5-1 0.6-1.5 0.6-0.5 0-1.1-0.1-1.5-0.2-2.9-1-4.8-4-6.6-6.8-1.7-2.6-3.4-5.4-6.1-7.2-1.7-1.1-3.1-0.5-3.7 0.3-0.3 0.4-0.5 0.9-0.5 1.5-0.1 1.6-0.2 3.3-0.2 4.9-0.2 6.4 0 12.8 0.6 19.1 0 0.6 0.1 1.3 0.2 1.9l0.1 0.7c0.4 3.7 0.8 7.6 0.6 11.4-0.1 1.1-0.2 4.6-1.5 5.6-0.3 0.2-0.7 0.4-1.5 0.2-1.3-0.3-2-1.7-2.2-2.1-0.5-1.2-0.7-2.6-0.8-4.1l-1.5-15.9-0.5-5c-0.1-1.4-0.8-2.5-1.8-3.1-0.4-0.2-0.8-0.4-1.3-0.4 0 0 0 0 0 0-1.1 0-2.4 0.8-2.6 2.9-0.4 4.2-0.2 8.4 0.1 12.5l0 0.4c0.1 1.9 0.2 3.8 0.3 5.7 0 1.4 0 2.7 0 4.1-0.1 1.4-0.2 2.8-0.4 4.2-0.3 2.2-1.3 4.4-2.7 4.5-1 0-1.8-0.8-2.2-1.5-0.9-1.6-1-3.7-1-5.6l0-0.7c-0.1-2.5-0.1-4.9-0.1-8 0-1.6 0.1-3.3 0.1-4.9l0-1.8c0.1-2.4 0.1-4.9 0.1-7.4 0-0.1 0-0.2 0-0.4 0-0.8 0-2.2-0.8-3.1-0.2-0.2-0.4-0.4-0.7-0.5-0.5-0.3-1-0.4-1.4-0.4-0.4 0-0.7 0.1-0.9 0.2-0.4 0.2-0.8 0.5-1 1.2-0.1 0.2-0.2 0.5-0.2 0.9C66.1 61.5 64.8 69.7 63.2 77.8z" fill="#d9733e" data-fill-palette-color="accent"></path></g></g></g></g></svg></g></g></svg></g><defs></defs></svg><rect width="395.52" height="247.2" fill="none" stroke="none" visibility="hidden"></rect></g></svg></g></svg>